<?xml version="1.0" standalone="no"?>
<!DOCTYPE svg PUBLIC "-//W3C//DTD SVG 20010904//EN"
 "http://www.w3.org/TR/2001/REC-SVG-20010904/DTD/svg10.dtd">
<svg version="1.0" xmlns="http://www.w3.org/2000/svg"
 width="512.000000pt" height="512.000000pt" viewBox="0 0 512.000000 512.000000"
 preserveAspectRatio="xMidYMid meet">

<g transform="translate(0.000000,512.000000) scale(0.100000,-0.100000)"
fill="#000000" stroke="none">
<path d="M1652 5070 c-18 -11 -41 -34 -52 -52 -19 -32 -20 -52 -20 -440 l0
-407 -37 -6 c-152 -25 -267 -69 -383 -146 -141 -95 -262 -238 -325 -388 -54
-130 -67 -202 -72 -406 l-5 -190 -29 -42 c-83 -118 -78 -264 14 -376 38 -47
112 -92 168 -102 36 -7 37 -8 54 -76 33 -139 106 -261 210 -357 l65 -59 0 -75
0 -75 -442 -174 c-277 -109 -465 -188 -503 -213 -91 -59 -180 -157 -226 -251
-67 -136 -70 -167 -67 -668 3 -439 3 -442 25 -473 47 -66 18 -64 785 -64 754
0 728 -2 742 55 7 29 -15 79 -39 89 -9 3 -167 6 -351 6 l-334 0 0 194 c0 111
-4 207 -10 222 -22 57 -83 72 -125 29 -25 -24 -25 -24 -25 -235 l0 -210 -201
0 -201 0 5 478 c4 517 4 516 63 635 36 74 30 71 517 262 367 144 378 148 392
129 23 -34 364 -329 390 -337 16 -5 33 -3 52 7 29 15 318 265 366 318 l29 30
376 -147 c208 -81 404 -162 437 -179 85 -44 169 -132 214 -225 l36 -76 3 -439
c2 -350 0 -441 -10 -448 -7 -4 -122 -8 -255 -8 l-243 0 0 210 c0 211 0 211
-25 235 -39 40 -96 32 -120 -16 -12 -22 -15 -72 -15 -229 l0 -200 -340 0 -341
0 -24 -25 c-32 -31 -32 -69 0 -100 l24 -25 1133 0 1133 0 527 528 528 528 0
782 0 783 -25 24 c-33 34 -77 33 -104 -1 -21 -26 -21 -33 -21 -750 l0 -723
-459 -3 c-446 -3 -460 -4 -487 -24 -15 -11 -37 -33 -48 -48 -20 -27 -21 -41
-24 -487 l-3 -459 -319 0 -319 0 -3 447 -4 448 -26 71 c-33 91 -52 127 -102
193 -43 57 -122 126 -190 166 -33 19 -608 250 -863 347 l-53 19 0 75 0 74 83
82 c109 109 165 216 201 381 5 19 13 27 29 27 37 0 123 46 165 88 22 22 51 63
64 91 l23 51 343 0 c286 0 349 3 379 15 50 21 72 42 94 90 17 37 19 74 19 485
0 411 -2 448 -19 485 -10 22 -28 48 -39 58 -49 44 -74 46 -552 46 -250 0 -480
-4 -510 -8 l-54 -8 -62 52 c-135 115 -279 180 -466 210 l-38 6 0 384 0 385
1620 0 1620 0 0 -994 c0 -956 1 -995 19 -1017 26 -32 86 -32 112 0 18 22 19
61 19 1040 0 996 0 1017 -20 1049 -11 18 -34 41 -52 52 -33 20 -54 20 -1698
20 -1644 0 -1665 0 -1698 -20z m555 -2265 c-3 -328 -3 -330 -29 -398 -14 -37
-38 -86 -53 -108 -44 -63 -158 -164 -216 -192 -318 -154 -708 17 -793 349 -13
49 -16 119 -16 346 l0 285 148 6 c154 6 263 26 407 73 94 32 240 98 310 142
l50 31 97 -102 98 -102 -3 -330z m-1267 5 l0 -151 -30 16 c-98 51 -116 178
-36 253 63 57 66 52 66 -118z m1484 129 c37 -29 58 -74 58 -124 0 -50 -21 -95
-58 -124 -51 -40 -54 -34 -54 124 0 158 3 164 54 124z m-934 -1026 c115 -26
279 -18 408 22 22 7 22 6 21 -86 l0 -94 -120 -105 c-66 -58 -126 -109 -133
-114 -10 -7 -49 22 -144 105 l-131 114 -1 94 c0 85 2 93 18 86 9 -3 46 -13 82
-22z m3360 -876 c0 -1 -169 -171 -375 -377 l-375 -375 0 378 0 377 375 0 c206
0 375 -1 375 -3z"/>
<path d="M3783 3910 c-46 -19 -57 -83 -20 -118 23 -22 27 -22 399 -22 l377 0
20 26 c34 43 26 86 -20 109 -23 12 -90 15 -381 14 -194 0 -363 -4 -375 -9z"/>
<path d="M3762 3377 c-39 -41 -25 -97 29 -116 42 -15 697 -15 735 -1 55 21 69
68 33 114 l-20 26 -378 0 -378 0 -21 -23z"/>
<path d="M3765 2865 c-14 -13 -25 -36 -25 -50 0 -14 11 -37 25 -50 l24 -25
371 0 371 0 24 25 c14 13 25 36 25 50 0 14 -11 37 -25 50 l-24 25 -371 0 -371
0 -24 -25z"/>
<path d="M2645 2369 c-49 -27 -58 -70 -24 -113 l20 -26 949 0 949 0 20 26 c26
33 27 65 2 95 l-19 24 -939 2 c-669 2 -944 -1 -958 -8z"/>
<path d="M3083 1855 c-35 -15 -49 -48 -39 -91 14 -54 14 -54 765 -54 453 0
699 4 717 10 72 28 72 112 0 140 -18 6 -264 10 -719 10 -570 -1 -698 -3 -724
-15z"/>
<path d="M3522 1327 c-27 -29 -28 -67 -3 -98 15 -19 30 -24 85 -27 77 -5 119
9 135 44 16 37 14 52 -14 79 -21 22 -33 25 -103 25 -69 0 -81 -3 -100 -23z"/>
</g>
</svg>
